<svg width="16" height="16" viewBox="0 0 16 16" fill="none" xmlns="http://www.w3.org/2000/svg">
<path fill-rule="evenodd" clip-rule="evenodd" d="M6.2155 13.5937C6.20701 13.6571 6.20215 13.7215 6.20215 13.787C6.20215 14.6558 6.96947 15.36 7.916 15.36C8.86257 15.36 9.62988 14.6558 9.62988 13.787C9.62988 13.7215 9.625 13.6571 9.61653 13.5937H6.2155Z" stroke="white"/>
<path d="M13.4338 10.9311H13.4162C12.9687 10.8059 12.6418 10.4085 12.6418 9.93719V7.29646C12.6418 7.29363 12.6416 7.29086 12.6416 7.28807C12.6432 7.23903 12.6443 7.18985 12.6443 7.14042C12.6443 4.6193 10.5214 2.5755 7.90257 2.5755C5.28375 2.5755 3.16079 4.6193 3.16079 7.14042C3.16079 7.17134 3.16138 7.20212 3.162 7.2329C3.16173 7.25409 3.16079 7.27518 3.16079 7.29646V9.93719C3.16079 10.4085 2.83352 10.8059 2.38595 10.9311H2.36836C1.61262 10.9311 1 11.5209 1 12.2484C1 12.976 1.61262 13.5658 2.36836 13.5658H13.4338C14.1895 13.5658 14.8022 12.976 14.8022 12.2484C14.8021 11.5209 14.1895 10.9311 13.4338 10.9311" stroke="white"/>
<path fill-rule="evenodd" clip-rule="evenodd" d="M8 2.54763C8.55228 2.54763 9 2.11783 9 1.58763C9 1.05744 8.55228 0.627632 8 0.627632C7.44772 0.627632 7 1.05744 7 1.58763C7 2.11783 7.44772 2.54763 8 2.54763Z" stroke="white"/>
<path fill-rule="evenodd" clip-rule="evenodd" d="M12 8C13.6569 8 15 6.65685 15 5C15 3.34315 13.6569 2 12 2C10.3431 2 9 3.34315 9 5C9 6.65685 10.3431 8 12 8Z" fill="#FF0000"/>
</svg>
