<svg width="22" height="22" viewBox="0 0 22 22" fill="none" xmlns="http://www.w3.org/2000/svg">
<path fill-rule="evenodd" clip-rule="evenodd" d="M19.7433 14.3853L9.9485 5.4809C8.83872 4.47209 7.03961 4.47209 5.9301 5.4809C4.82014 6.48959 4.82014 8.12518 5.9301 9.13415L14.4693 16.8971L14.9714 16.4402L6.43219 8.67759C5.59983 7.92094 5.59983 6.69415 6.43219 5.93751C7.26459 5.18074 8.61392 5.18074 9.44619 5.93751L19.2412 14.8419C20.6284 16.1029 20.6284 18.1476 19.2412 19.4085C17.8538 20.6697 15.6049 20.6697 14.2177 19.4085L3.16726 9.36272C1.22539 7.59722 1.22539 4.73488 3.16726 2.96938C5.10943 1.20409 8.25806 1.20409 10.2001 2.96938L18.7389 10.7323L19.2412 10.2759L10.7017 2.51294C8.48201 0.495283 4.88339 0.495768 2.6641 2.51391C0.444856 4.53189 0.445389 7.80336 2.66517 9.82086L13.7157 19.8651C15.3801 21.3783 18.0789 21.3783 19.7433 19.8651C21.4079 18.3518 21.4079 15.8985 19.7433 14.3853Z" fill="#0076FF"/>
<path d="M19.7433 14.3853L9.9485 5.4809C8.83872 4.47209 7.03961 4.47209 5.9301 5.4809C4.82014 6.48959 4.82014 8.12518 5.9301 9.13415L14.4693 16.8971L14.9714 16.4402L6.43219 8.67759C5.59983 7.92094 5.59983 6.69415 6.43219 5.93751C7.26459 5.18074 8.61392 5.18074 9.44619 5.93751L19.2412 14.8419C20.6284 16.1029 20.6284 18.1476 19.2412 19.4085C17.8538 20.6697 15.6049 20.6697 14.2177 19.4085L3.16726 9.36272C1.22539 7.59722 1.22539 4.73488 3.16726 2.96938C5.10943 1.20409 8.25806 1.20409 10.2001 2.96938L18.7389 10.7323L19.2412 10.2759L10.7017 2.51294C8.48201 0.495283 4.88339 0.495768 2.6641 2.51391C0.444856 4.53189 0.445389 7.80336 2.66517 9.82086L13.7157 19.8651C15.3801 21.3783 18.0789 21.3783 19.7433 19.8651C21.4079 18.3518 21.4079 15.8985 19.7433 14.3853" stroke="#0076FF"/>
</svg>
