<svg width="78" height="78" viewBox="0 0 78 78" fill="none" xmlns="http://www.w3.org/2000/svg">
<path id="ic-facebook" fill-rule="evenodd" clip-rule="evenodd" d="M72.874 0H4.26898C1.90848 0 0 1.90848 0 4.26898V72.874C0 75.2345 1.90848 77.143 4.26898 77.143H41.1831V47.2601H31.1384V35.6083H41.1831V27.0201C41.1831 17.0759 47.3103 11.6518 56.1998 11.6518C60.4186 11.6518 64.0849 11.9531 65.1396 12.1038V22.5L59.0123 22.5502C54.1407 22.5502 53.2367 24.8103 53.2367 28.1753V35.6083H64.7378L63.2311 47.2601H53.2367V77.143H72.874C75.2345 77.143 77.143 75.2345 77.143 72.874V4.26898C77.143 1.90848 75.2345 0 72.874 0Z" fill="#999999"/>
</svg>
