<svg width="81" height="78" viewBox="0 0 81 78" fill="none" xmlns="http://www.w3.org/2000/svg">
<path id="ic-instagram" fill-rule="evenodd" clip-rule="evenodd" d="M53.5748 38.5746C53.5748 45.6561 47.7992 51.4318 40.7177 51.4318C33.6362 51.4318 27.8605 45.6561 27.8605 38.5746C27.8605 31.4931 33.6362 25.7175 40.7177 25.7175C47.7992 25.7175 53.5748 31.4931 53.5748 38.5746ZM60.5057 38.5746C60.5057 27.6259 51.6664 18.7866 40.7177 18.7866C29.769 18.7866 20.9297 27.6259 20.9297 38.5746C20.9297 49.5233 29.769 58.3626 40.7177 58.3626C51.6664 58.3626 60.5057 49.5233 60.5057 38.5746ZM65.9298 17.9831C65.9298 15.4217 63.8706 13.3625 61.3092 13.3625C58.7478 13.3625 56.6887 15.4217 56.6887 17.9831C56.6887 20.5445 58.7478 22.6036 61.3092 22.6036C63.8706 22.6036 65.9298 20.5445 65.9298 17.9831ZM40.7177 6.93395C46.3427 6.93395 58.3963 6.48194 63.4688 8.49087C65.2266 9.194 66.5324 10.0478 67.8885 11.4038C69.2445 12.7599 70.0983 14.0657 70.8014 15.8235C72.8104 20.896 72.3583 32.9496 72.3583 38.5746C72.3583 44.1996 72.8104 56.2532 70.8014 61.3258C70.0983 63.0836 69.2445 64.3894 67.8885 65.7454C66.5324 67.1014 65.2266 67.9552 63.4688 68.6584C58.3963 70.6673 46.3427 70.2153 40.7177 70.2153C35.0927 70.2153 23.0391 70.6673 17.9665 68.6584C16.2087 67.9552 14.9029 67.1014 13.5469 65.7454C12.1909 64.3894 11.3371 63.0836 10.6339 61.3258C8.62501 56.2532 9.07702 44.1996 9.07702 38.5746C9.07702 32.9496 8.62501 20.896 10.6339 15.8235C11.3371 14.0657 12.1909 12.7599 13.5469 11.4038C14.9029 10.0478 16.2087 9.194 17.9665 8.49087C23.0391 6.48194 35.0927 6.93395 40.7177 6.93395ZM79.2892 38.5746C79.2892 33.2509 79.3394 27.9775 79.038 22.6538C78.7367 16.4764 77.3304 11.002 72.8104 6.48194C68.2903 1.96185 62.8159 0.555595 56.6385 0.254255C51.3148 -0.0470843 46.0413 0.00313895 40.7177 0.00313895C35.394 0.00313895 30.1206 -0.0470843 24.7969 0.254255C18.6194 0.555595 13.1451 1.96185 8.62501 6.48194C4.10491 11.002 2.69866 16.4764 2.39732 22.6538C2.09598 27.9775 2.14621 33.2509 2.14621 38.5746C2.14621 43.8983 2.09598 49.1717 2.39732 54.4954C2.69866 60.6729 4.10491 66.1472 8.62501 70.6673C13.1451 75.1874 18.6194 76.5936 24.7969 76.895C30.1206 77.1963 35.394 77.1461 40.7177 77.1461C46.0413 77.1461 51.3148 77.1963 56.6385 76.895C62.8159 76.5936 68.2903 75.1874 72.8104 70.6673C77.3304 66.1472 78.7367 60.6729 79.038 54.4954C79.3394 49.1717 79.2892 43.8983 79.2892 38.5746Z" fill="#999999"/>
</svg>
