<svg width="30" height="30" viewBox="0 0 30 30" fill="none" xmlns="http://www.w3.org/2000/svg">
<rect x="0.5" y="0.5" width="29" height="29" rx="14.5" stroke="white"/>
<path d="M16.718 11.5516L16.229 11.4474L16.1002 12.0516H16.718V11.5516ZM17.3551 8.56163L17.8441 8.66582L17.8551 8.6143V8.56163H17.3551ZM17.1006 7.65081L17.5182 7.37595L17.4849 7.32529L17.4404 7.28407L17.1006 7.65081ZM16.3983 7L16.7381 6.63326L16.3812 6.30249L16.0408 6.65034L16.3983 7ZM12.2003 11.2908L12.5036 11.6883L12.5324 11.6664L12.5577 11.6405L12.2003 11.2908ZM19.9615 19.2192L20.4234 19.4107L20.4234 19.4105L19.9615 19.2192ZM21.8727 14.6042L21.4215 14.3888L21.4158 14.4007L21.4108 14.4129L21.8727 14.6042ZM22 12.8492H22.5L21.5004 12.8291L22 12.8492ZM8 20H7.5V20.5H8V20ZM10.5444 20V20.5H11.0444V20H10.5444ZM10.5444 12.1984H11.0444V11.6984H10.5444V12.1984ZM8 12.1984V11.6984H7.5V12.1984H8ZM22.5 12.8492C22.5 11.8669 21.7091 11.0516 20.7258 11.0516V12.0516C21.1408 12.0516 21.5 12.4031 21.5 12.8492H22.5ZM20.7258 11.0516H16.718V12.0516H20.7258V11.0516ZM17.207 11.6558L17.8441 8.66582L16.8661 8.45743L16.229 11.4474L17.207 11.6558ZM17.8551 8.56163V8.365H16.8551V8.56163H17.8551ZM17.8551 8.365C17.8551 7.95706 17.6633 7.59644 17.5182 7.37595L16.6829 7.92568C16.7923 8.09193 16.8551 8.25132 16.8551 8.365H17.8551ZM17.4404 7.28407L16.7381 6.63326L16.0584 7.36674L16.7607 8.01756L17.4404 7.28407ZM16.0408 6.65034L11.8429 10.9411L12.5577 11.6405L16.7557 7.34966L16.0408 6.65034ZM11.897 10.8933C11.481 11.2108 11.3185 11.71 11.3185 12.1984H12.3185C12.3185 11.9133 12.4106 11.7592 12.5036 11.6883L11.897 10.8933ZM11.3185 12.1984V18.6984H12.3185V12.1984H11.3185ZM11.3185 18.6984C11.3185 19.6808 12.1033 20.5 13.0887 20.5V19.5C12.6776 19.5 12.3185 19.1508 12.3185 18.6984H11.3185ZM13.0887 20.5H18.8185V19.5H13.0887V20.5ZM18.8185 20.5C19.542 20.5 20.1624 20.0402 20.4234 19.4107L19.4996 19.0277C19.382 19.3114 19.1084 19.5 18.8185 19.5V20.5ZM20.4234 19.4105L22.3347 14.7955L21.4108 14.4129L19.4995 19.0279L20.4234 19.4105ZM22.324 14.8195C22.3566 14.7512 22.37 14.6839 22.3743 14.663C22.3813 14.6288 22.3869 14.5926 22.3915 14.5587C22.4008 14.4902 22.4092 14.4068 22.4169 14.3184C22.4324 14.1403 22.4467 13.9192 22.4588 13.7064C22.471 13.4927 22.4812 13.2835 22.4883 13.128C22.4919 13.0502 22.4947 12.9857 22.4966 12.9406C22.4976 12.918 22.4983 12.9002 22.4988 12.8881C22.4991 12.882 22.4993 12.8774 22.4994 12.8742C22.4995 12.8726 22.4995 12.8714 22.4995 12.8706C22.4996 12.8701 22.4996 12.8698 22.4996 12.8696C22.4996 12.8695 22.4996 12.8694 22.4996 12.8693C22.4996 12.8693 22.4996 12.8693 22.4996 12.8693C22.4996 12.8693 22.4996 12.8692 22 12.8492C21.5004 12.8291 21.5004 12.8291 21.5004 12.8291C21.5004 12.8291 21.5004 12.8292 21.5004 12.8292C21.5004 12.8292 21.5004 12.8293 21.5004 12.8294C21.5004 12.8295 21.5004 12.8298 21.5004 12.8302C21.5003 12.8309 21.5003 12.832 21.5002 12.8335C21.5001 12.8365 21.4999 12.841 21.4997 12.8468C21.4992 12.8586 21.4985 12.8759 21.4975 12.898C21.4956 12.9422 21.4929 13.0056 21.4894 13.0822C21.4823 13.2355 21.4723 13.4407 21.4604 13.6495C21.4485 13.8592 21.4349 14.0687 21.4207 14.2318C21.4135 14.314 21.4067 14.379 21.4006 14.4242C21.3974 14.4472 21.3953 14.4592 21.3945 14.4631C21.391 14.4803 21.3966 14.441 21.4215 14.3888L22.324 14.8195ZM21.5 12.8492C21.5 12.8493 21.5 12.8494 21.5 12.8496C21.5 12.8497 21.5 12.8498 21.5 12.85C21.5 12.8501 21.5 12.8502 21.5 12.8503C21.5 12.8505 21.5 12.8506 21.5 12.8507C21.5 12.8509 21.5 12.851 21.5 12.8511C21.5 12.8512 21.5 12.8514 21.5 12.8515C21.5 12.8516 21.5 12.8517 21.5 12.8518C21.5 12.852 21.5 12.8521 21.5 12.8522C21.5 12.8523 21.5 12.8525 21.5 12.8526C21.5 12.8527 21.5 12.8528 21.5 12.8529C21.5 12.8531 21.5 12.8532 21.5 12.8533C21.5 12.8534 21.5 12.8535 21.5 12.8537C21.5 12.8538 21.5 12.8539 21.5 12.854C21.5 12.8541 21.5 12.8542 21.5 12.8544C21.5 12.8545 21.5 12.8546 21.5 12.8547C21.5 12.8548 21.5 12.8549 21.5 12.855C21.5 12.8552 21.5 12.8553 21.5 12.8554C21.5 12.8555 21.5 12.8556 21.5 12.8557C21.5 12.8558 21.5 12.856 21.5 12.8561C21.5 12.8562 21.5 12.8563 21.5 12.8564C21.5 12.8565 21.5 12.8566 21.5 12.8567C21.5 12.8568 21.5 12.8569 21.5 12.8571C21.5 12.8572 21.5 12.8573 21.5 12.8574C21.5 12.8575 21.5 12.8576 21.5 12.8577C21.5 12.8578 21.5 12.8579 21.5 12.858C21.5 12.8581 21.5 12.8582 21.5 12.8583C21.5 12.8584 21.5 12.8585 21.5 12.8586C21.5 12.8587 21.5 12.8589 21.5 12.859C21.5 12.8591 21.5 12.8592 21.5 12.8593C21.5 12.8594 21.5 12.8595 21.5 12.8596C21.5 12.8597 21.5 12.8598 21.5 12.8599C21.5 12.86 21.5 12.8601 21.5 12.8602C21.5 12.8603 21.5 12.8604 21.5 12.8605C21.5 12.8606 21.5 12.8607 21.5 12.8608C21.5 12.8609 21.5 12.8609 21.5 12.861C21.5 12.8611 21.5 12.8612 21.5 12.8613C21.5 12.8614 21.5 12.8615 21.5 12.8616C21.5 12.8617 21.5 12.8618 21.5 12.8619C21.5 12.862 21.5 12.8621 21.5 12.8622C21.5 12.8623 21.5 12.8624 21.5 12.8625C21.5 12.8625 21.5 12.8626 21.5 12.8627C21.5 12.8628 21.5 12.8629 21.5 12.863C21.5 12.8631 21.5 12.8632 21.5 12.8633C21.5 12.8634 21.5 12.8635 21.5 12.8635C21.5 12.8636 21.5 12.8637 21.5 12.8638C21.5 12.8639 21.5 12.864 21.5 12.8641C21.5 12.8641 21.5 12.8642 21.5 12.8643C21.5 12.8644 21.5 12.8645 21.5 12.8646C21.5 12.8647 21.5 12.8647 21.5 12.8648C21.5 12.8649 21.5 12.865 21.5 12.8651C21.5 12.8652 21.5 12.8652 21.5 12.8653C21.5 12.8654 21.5 12.8655 21.5 12.8656C21.5 12.8657 21.5 12.8657 21.5 12.8658C21.5 12.8659 21.5 12.866 21.5 12.8661C21.5 12.8661 21.5 12.8662 21.5 12.8663C21.5 12.8664 21.5 12.8665 21.5 12.8665C21.5 12.8666 21.5 12.8667 21.5 12.8668C21.5 12.8668 21.5 12.8669 21.5 12.867C21.5 12.8671 21.5 12.8671 21.5 12.8672C21.5 12.8673 21.5 12.8674 21.5 12.8674C21.5 12.8675 21.5 12.8676 21.5 12.8677C21.5 12.8677 21.5 12.8678 21.5 12.8679C21.5 12.868 21.5 12.868 21.5 12.8681C21.5 12.8682 21.5 12.8682 21.5 12.8683C21.5 12.8684 21.5 12.8685 21.5 12.8685C21.5 12.8686 21.5 12.8687 21.5 12.8687C21.5 12.8688 21.5 12.8689 21.5 12.8689C21.5 12.869 21.5 12.8691 21.5 12.8692C21.5 12.8692 21.5 12.8693 21.5 12.8694C21.5 12.8694 21.5 12.8695 21.5 12.8696C21.5 12.8696 21.5 12.8697 21.5 12.8698C21.5 12.8698 21.5 12.8699 21.5 12.8699C21.5 12.87 21.5 12.8701 21.5 12.8701C21.5 12.8702 21.5 12.8703 21.5 12.8703C21.5 12.8704 21.5 12.8705 21.5 12.8705C21.5 12.8706 21.5 12.8706 21.5 12.8707C21.5 12.8708 21.5 12.8708 21.5 12.8709C21.5 12.8709 21.5 12.871 21.5 12.8711C21.5 12.8711 21.5 12.8712 21.5 12.8712C21.5 12.8713 21.5 12.8714 21.5 12.8714C21.5 12.8715 21.5 12.8715 21.5 12.8716C21.5 12.8717 21.5 12.8717 21.5 12.8718C21.5 12.8718 21.5 12.8719 21.5 12.8719C21.5 12.872 21.5 12.872 21.5 12.8721C21.5 12.8722 21.5 12.8722 21.5 12.8723C21.5 12.8723 21.5 12.8724 21.5 12.8724C21.5 12.8725 21.5 12.8725 21.5 12.8726C21.5 12.8726 21.5 12.8727 21.5 12.8727C21.5 12.8728 21.5 12.8729 21.5 12.8729C21.5 12.873 21.5 12.873 21.5 12.8731C21.5 12.8731 21.5 12.8732 21.5 12.8732C21.5 12.8733 21.5 12.8733 21.5 12.8734C21.5 12.8734 21.5 12.8735 21.5 12.8735C21.5 12.8735 21.5 12.8736 21.5 12.8736C21.5 12.8737 21.5 12.8737 21.5 12.8738C21.5 12.8738 21.5 12.8739 21.5 12.8739C21.5 12.874 21.5 12.874 21.5 12.8741C21.5 12.8741 21.5 12.8742 21.5 12.8742C21.5 12.8742 21.5 12.8743 21.5 12.8743C21.5 12.8744 21.5 12.8744 21.5 12.8745C21.5 12.8745 21.5 12.8746 21.5 12.8746C21.5 12.8746 21.5 12.8747 21.5 12.8747C21.5 12.8748 21.5 12.8748 21.5 12.8748C21.5 12.8749 21.5 12.8749 21.5 12.875C21.5 12.875 21.5 12.875 21.5 12.8751C21.5 12.8751 21.5 12.8752 21.5 12.8752C21.5 12.8752 21.5 12.8753 21.5 12.8753C21.5 12.8754 21.5 12.8754 21.5 12.8754C21.5 12.8755 21.5 12.8755 21.5 12.8755C21.5 12.8756 21.5 12.8756 21.5 12.8757C21.5 12.8757 21.5 12.8757 21.5 12.8758C21.5 12.8758 21.5 12.8758 21.5 12.8759C21.5 12.8759 21.5 12.8759 21.5 12.876C21.5 12.876 21.5 12.876 21.5 12.8761C21.5 12.8761 21.5 12.8761 21.5 12.8762C21.5 12.8762 21.5 12.8762 21.5 12.8763C21.5 12.8763 21.5 12.8763 21.5 12.8764C21.5 12.8764 21.5 12.8764 21.5 12.8765C21.5 12.8765 21.5 12.8765 21.5 12.8766C21.5 12.8766 21.5 12.8766 21.5 12.8766C21.5 12.8767 21.5 12.8767 21.5 12.8767C21.5 12.8768 21.5 12.8768 21.5 12.8768C21.5 12.8768 21.5 12.8769 21.5 12.8769C21.5 12.8769 21.5 12.877 21.5 12.877C21.5 12.877 21.5 12.877 21.5 12.8771C21.5 12.8771 21.5 12.8771 21.5 12.8771C21.5 12.8772 21.5 12.8772 21.5 12.8772C21.5 12.8772 21.5 12.8773 21.5 12.8773C21.5 12.8773 21.5 12.8773 21.5 12.8774C21.5 12.8774 21.5 12.8774 21.5 12.8774C21.5 12.8775 21.5 12.8775 21.5 12.8775C21.5 12.8775 21.5 12.8776 21.5 12.8776C21.5 12.8776 21.5 12.8776 21.5 12.8776C21.5 12.8777 21.5 12.8777 21.5 12.8777C21.5 12.8777 21.5 12.8777 21.5 12.8778C21.5 12.8778 21.5 12.8778 21.5 12.8778C21.5 12.8778 21.5 12.8779 21.5 12.8779C21.5 12.8779 21.5 12.8779 21.5 12.8779C21.5 12.878 21.5 12.878 21.5 12.878C21.5 12.878 21.5 12.878 21.5 12.878C21.5 12.8781 21.5 12.8781 21.5 12.8781C21.5 12.8781 21.5 12.8781 21.5 12.8781C21.5 12.8782 21.5 12.8782 21.5 12.8782C21.5 12.8782 21.5 12.8782 21.5 12.8782C21.5 12.8782 21.5 12.8783 21.5 12.8783C21.5 12.8783 21.5 12.8783 21.5 12.8783C21.5 12.8783 21.5 12.8783 21.5 12.8784C21.5 12.8784 21.5 12.8784 21.5 12.8784C21.5 12.8784 21.5 12.8784 21.5 12.8784C21.5 12.8784 21.5 12.8784 21.5 12.8785C21.5 12.8785 21.5 12.8785 21.5 12.8785C21.5 12.8785 21.5 12.8785 21.5 12.8785C21.5 12.8785 21.5 12.8785 21.5 12.8786C21.5 12.8786 21.5 12.8786 21.5 12.8786C21.5 12.8786 21.5 12.8786 21.5 12.8786C21.5 12.8786 21.5 12.8786 21.5 12.8786C21.5 12.8786 21.5 12.8786 21.5 12.8787C21.5 12.8787 21.5 12.8787 21.5 12.8787C21.5 12.8787 21.5 12.8787 21.5 12.8787C21.5 12.8787 21.5 12.8787 21.5 12.8787C21.5 12.8787 21.5 12.8787 21.5 12.8787C21.5 12.8787 21.5 12.8787 21.5 12.8787C21.5 12.8787 21.5 12.8787 21.5 12.8788C21.5 12.8788 21.5 12.8788 21.5 12.8788C21.5 12.8788 21.5 12.8788 21.5 12.8788C21.5 12.8788 21.5 12.8788 21.5 12.8788C21.5 12.8788 21.5 12.8788 21.5 12.8788C21.5 12.8788 21.5 12.8788 21.5 12.8788C21.5 12.8788 21.5 12.8788 21.5 12.8788C21.5 12.8788 21.5 12.8788 21.5 12.8788C21.5 12.8788 22 12.8788 22.5 12.8788C22.5 12.8788 22.5 12.8788 22.5 12.8788C22.5 12.8788 22.5 12.8788 22.5 12.8788C22.5 12.8788 22.5 12.8788 22.5 12.8788C22.5 12.8788 22.5 12.8788 22.5 12.8788C22.5 12.8788 22.5 12.8788 22.5 12.8788C22.5 12.8788 22.5 12.8788 22.5 12.8788C22.5 12.8788 22.5 12.8788 22.5 12.8788C22.5 12.8788 22.5 12.8788 22.5 12.8787C22.5 12.8787 22.5 12.8787 22.5 12.8787C22.5 12.8787 22.5 12.8787 22.5 12.8787C22.5 12.8787 22.5 12.8787 22.5 12.8787C22.5 12.8787 22.5 12.8787 22.5 12.8787C22.5 12.8787 22.5 12.8787 22.5 12.8787C22.5 12.8787 22.5 12.8787 22.5 12.8786C22.5 12.8786 22.5 12.8786 22.5 12.8786C22.5 12.8786 22.5 12.8786 22.5 12.8786C22.5 12.8786 22.5 12.8786 22.5 12.8786C22.5 12.8786 22.5 12.8786 22.5 12.8786C22.5 12.8785 22.5 12.8785 22.5 12.8785C22.5 12.8785 22.5 12.8785 22.5 12.8785C22.5 12.8785 22.5 12.8785 22.5 12.8785C22.5 12.8785 22.5 12.8784 22.5 12.8784C22.5 12.8784 22.5 12.8784 22.5 12.8784C22.5 12.8784 22.5 12.8784 22.5 12.8784C22.5 12.8784 22.5 12.8783 22.5 12.8783C22.5 12.8783 22.5 12.8783 22.5 12.8783C22.5 12.8783 22.5 12.8783 22.5 12.8783C22.5 12.8782 22.5 12.8782 22.5 12.8782C22.5 12.8782 22.5 12.8782 22.5 12.8782C22.5 12.8782 22.5 12.8782 22.5 12.8781C22.5 12.8781 22.5 12.8781 22.5 12.8781C22.5 12.8781 22.5 12.8781 22.5 12.8781C22.5 12.878 22.5 12.878 22.5 12.878C22.5 12.878 22.5 12.878 22.5 12.878C22.5 12.8779 22.5 12.8779 22.5 12.8779C22.5 12.8779 22.5 12.8779 22.5 12.8779C22.5 12.8778 22.5 12.8778 22.5 12.8778C22.5 12.8778 22.5 12.8778 22.5 12.8778C22.5 12.8777 22.5 12.8777 22.5 12.8777C22.5 12.8777 22.5 12.8777 22.5 12.8777C22.5 12.8776 22.5 12.8776 22.5 12.8776C22.5 12.8776 22.5 12.8776 22.5 12.8775C22.5 12.8775 22.5 12.8775 22.5 12.8775C22.5 12.8775 22.5 12.8774 22.5 12.8774C22.5 12.8774 22.5 12.8774 22.5 12.8774C22.5 12.8774 22.5 12.8773 22.5 12.8773C22.5 12.8773 22.5 12.8773 22.5 12.8772C22.5 12.8772 22.5 12.8772 22.5 12.8772C22.5 12.8772 22.5 12.8771 22.5 12.8771C22.5 12.8771 22.5 12.8771 22.5 12.8771C22.5 12.877 22.5 12.877 22.5 12.877C22.5 12.877 22.5 12.8769 22.5 12.8769C22.5 12.8769 22.5 12.8769 22.5 12.8769C22.5 12.8768 22.5 12.8768 22.5 12.8768C22.5 12.8768 22.5 12.8767 22.5 12.8767C22.5 12.8767 22.5 12.8767 22.5 12.8766C22.5 12.8766 22.5 12.8766 22.5 12.8766C22.5 12.8765 22.5 12.8765 22.5 12.8765C22.5 12.8765 22.5 12.8765 22.5 12.8764C22.5 12.8764 22.5 12.8764 22.5 12.8763C22.5 12.8763 22.5 12.8763 22.5 12.8763C22.5 12.8762 22.5 12.8762 22.5 12.8762C22.5 12.8762 22.5 12.8761 22.5 12.8761C22.5 12.8761 22.5 12.8761 22.5 12.876C22.5 12.876 22.5 12.876 22.5 12.876C22.5 12.8759 22.5 12.8759 22.5 12.8759C22.5 12.8759 22.5 12.8758 22.5 12.8758C22.5 12.8758 22.5 12.8757 22.5 12.8757C22.5 12.8757 22.5 12.8757 22.5 12.8756C22.5 12.8756 22.5 12.8756 22.5 12.8755C22.5 12.8755 22.5 12.8755 22.5 12.8755C22.5 12.8754 22.5 12.8754 22.5 12.8754C22.5 12.8753 22.5 12.8753 22.5 12.8753C22.5 12.8753 22.5 12.8752 22.5 12.8752C22.5 12.8752 22.5 12.8751 22.5 12.8751C22.5 12.8751 22.5 12.875 22.5 12.875C22.5 12.875 22.5 12.875 22.5 12.8749C22.5 12.8749 22.5 12.8749 22.5 12.8748C22.5 12.8748 22.5 12.8748 22.5 12.8747C22.5 12.8747 22.5 12.8747 22.5 12.8747C22.5 12.8746 22.5 12.8746 22.5 12.8746C22.5 12.8745 22.5 12.8745 22.5 12.8745C22.5 12.8744 22.5 12.8744 22.5 12.8744C22.5 12.8743 22.5 12.8743 22.5 12.8743C22.5 12.8742 22.5 12.8742 22.5 12.8742C22.5 12.8741 22.5 12.8741 22.5 12.8741C22.5 12.874 22.5 12.874 22.5 12.874C22.5 12.8739 22.5 12.8739 22.5 12.8739C22.5 12.8738 22.5 12.8738 22.5 12.8738C22.5 12.8737 22.5 12.8737 22.5 12.8737C22.5 12.8736 22.5 12.8736 22.5 12.8736C22.5 12.8735 22.5 12.8735 22.5 12.8735C22.5 12.8734 22.5 12.8734 22.5 12.8734C22.5 12.8733 22.5 12.8733 22.5 12.8733C22.5 12.8732 22.5 12.8732 22.5 12.8732C22.5 12.8731 22.5 12.8731 22.5 12.8731C22.5 12.873 22.5 12.873 22.5 12.8729C22.5 12.8729 22.5 12.8729 22.5 12.8728C22.5 12.8728 22.5 12.8728 22.5 12.8727C22.5 12.8727 22.5 12.8727 22.5 12.8726C22.5 12.8726 22.5 12.8726 22.5 12.8725C22.5 12.8725 22.5 12.8724 22.5 12.8724C22.5 12.8724 22.5 12.8723 22.5 12.8723C22.5 12.8723 22.5 12.8722 22.5 12.8722C22.5 12.8722 22.5 12.8721 22.5 12.8721C22.5 12.872 22.5 12.872 22.5 12.872C22.5 12.8719 22.5 12.8719 22.5 12.8719C22.5 12.8718 22.5 12.8718 22.5 12.8717C22.5 12.8717 22.5 12.8717 22.5 12.8716C22.5 12.8716 22.5 12.8716 22.5 12.8715C22.5 12.8715 22.5 12.8714 22.5 12.8714C22.5 12.8714 22.5 12.8713 22.5 12.8713C22.5 12.8712 22.5 12.8712 22.5 12.8712C22.5 12.8711 22.5 12.8711 22.5 12.8711C22.5 12.871 22.5 12.871 22.5 12.8709C22.5 12.8709 22.5 12.8709 22.5 12.8708C22.5 12.8708 22.5 12.8707 22.5 12.8707C22.5 12.8707 22.5 12.8706 22.5 12.8706C22.5 12.8706 22.5 12.8705 22.5 12.8705C22.5 12.8704 22.5 12.8704 22.5 12.8704C22.5 12.8703 22.5 12.8703 22.5 12.8702C22.5 12.8702 22.5 12.8702 22.5 12.8701C22.5 12.8701 22.5 12.87 22.5 12.87C22.5 12.87 22.5 12.8699 22.5 12.8699C22.5 12.8698 22.5 12.8698 22.5 12.8698C22.5 12.8697 22.5 12.8697 22.5 12.8696C22.5 12.8696 22.5 12.8696 22.5 12.8695C22.5 12.8695 22.5 12.8694 22.5 12.8694C22.5 12.8693 22.5 12.8693 22.5 12.8693C22.5 12.8692 22.5 12.8692 22.5 12.8691C22.5 12.8691 22.5 12.8691 22.5 12.869C22.5 12.869 22.5 12.8689 22.5 12.8689C22.5 12.8689 22.5 12.8688 22.5 12.8688C22.5 12.8687 22.5 12.8687 22.5 12.8686C22.5 12.8686 22.5 12.8686 22.5 12.8685C22.5 12.8685 22.5 12.8684 22.5 12.8684C22.5 12.8684 22.5 12.8683 22.5 12.8683C22.5 12.8682 22.5 12.8682 22.5 12.8682C22.5 12.8681 22.5 12.8681 22.5 12.868C22.5 12.868 22.5 12.8679 22.5 12.8679C22.5 12.8679 22.5 12.8678 22.5 12.8678C22.5 12.8677 22.5 12.8677 22.5 12.8676C22.5 12.8676 22.5 12.8676 22.5 12.8675C22.5 12.8675 22.5 12.8674 22.5 12.8674C22.5 12.8674 22.5 12.8673 22.5 12.8673C22.5 12.8672 22.5 12.8672 22.5 12.8671C22.5 12.8671 22.5 12.8671 22.5 12.867C22.5 12.867 22.5 12.8669 22.5 12.8669C22.5 12.8668 22.5 12.8668 22.5 12.8668C22.5 12.8667 22.5 12.8667 22.5 12.8666C22.5 12.8666 22.5 12.8665 22.5 12.8665C22.5 12.8665 22.5 12.8664 22.5 12.8664C22.5 12.8663 22.5 12.8663 22.5 12.8662C22.5 12.8662 22.5 12.8662 22.5 12.8661C22.5 12.8661 22.5 12.866 22.5 12.866C22.5 12.8659 22.5 12.8659 22.5 12.8659C22.5 12.8658 22.5 12.8658 22.5 12.8657C22.5 12.8657 22.5 12.8656 22.5 12.8656C22.5 12.8656 22.5 12.8655 22.5 12.8655C22.5 12.8654 22.5 12.8654 22.5 12.8653C22.5 12.8653 22.5 12.8652 22.5 12.8652C22.5 12.8652 22.5 12.8651 22.5 12.8651C22.5 12.865 22.5 12.865 22.5 12.8649C22.5 12.8649 22.5 12.8649 22.5 12.8648C22.5 12.8648 22.5 12.8647 22.5 12.8647C22.5 12.8646 22.5 12.8646 22.5 12.8646C22.5 12.8645 22.5 12.8645 22.5 12.8644C22.5 12.8644 22.5 12.8643 22.5 12.8643C22.5 12.8643 22.5 12.8642 22.5 12.8642C22.5 12.8641 22.5 12.8641 22.5 12.864C22.5 12.864 22.5 12.8639 22.5 12.8639C22.5 12.8639 22.5 12.8638 22.5 12.8638C22.5 12.8637 22.5 12.8637 22.5 12.8636C22.5 12.8636 22.5 12.8636 22.5 12.8635C22.5 12.8635 22.5 12.8634 22.5 12.8634C22.5 12.8633 22.5 12.8633 22.5 12.8633C22.5 12.8632 22.5 12.8632 22.5 12.8631C22.5 12.8631 22.5 12.863 22.5 12.863C22.5 12.863 22.5 12.8629 22.5 12.8629C22.5 12.8628 22.5 12.8628 22.5 12.8627C22.5 12.8627 22.5 12.8626 22.5 12.8626C22.5 12.8626 22.5 12.8625 22.5 12.8625C22.5 12.8624 22.5 12.8624 22.5 12.8623C22.5 12.8623 22.5 12.8623 22.5 12.8622C22.5 12.8622 22.5 12.8621 22.5 12.8621C22.5 12.862 22.5 12.862 22.5 12.862C22.5 12.8619 22.5 12.8619 22.5 12.8618C22.5 12.8618 22.5 12.8617 22.5 12.8617C22.5 12.8617 22.5 12.8616 22.5 12.8616C22.5 12.8615 22.5 12.8615 22.5 12.8614C22.5 12.8614 22.5 12.8614 22.5 12.8613C22.5 12.8613 22.5 12.8612 22.5 12.8612C22.5 12.8611 22.5 12.8611 22.5 12.8611C22.5 12.861 22.5 12.861 22.5 12.8609C22.5 12.8609 22.5 12.8608 22.5 12.8608C22.5 12.8608 22.5 12.8607 22.5 12.8607C22.5 12.8606 22.5 12.8606 22.5 12.8606C22.5 12.8605 22.5 12.8605 22.5 12.8604C22.5 12.8604 22.5 12.8603 22.5 12.8603C22.5 12.8603 22.5 12.8602 22.5 12.8602C22.5 12.8601 22.5 12.8601 22.5 12.86C22.5 12.86 22.5 12.86 22.5 12.8599C22.5 12.8599 22.5 12.8598 22.5 12.8598C22.5 12.8598 22.5 12.8597 22.5 12.8597C22.5 12.8596 22.5 12.8596 22.5 12.8595C22.5 12.8595 22.5 12.8595 22.5 12.8594C22.5 12.8594 22.5 12.8593 22.5 12.8593C22.5 12.8593 22.5 12.8592 22.5 12.8592C22.5 12.8591 22.5 12.8591 22.5 12.859C22.5 12.859 22.5 12.859 22.5 12.8589C22.5 12.8589 22.5 12.8588 22.5 12.8588C22.5 12.8588 22.5 12.8587 22.5 12.8587C22.5 12.8586 22.5 12.8586 22.5 12.8586C22.5 12.8585 22.5 12.8585 22.5 12.8584C22.5 12.8584 22.5 12.8584 22.5 12.8583C22.5 12.8583 22.5 12.8582 22.5 12.8582C22.5 12.8582 22.5 12.8581 22.5 12.8581C22.5 12.858 22.5 12.858 22.5 12.858C22.5 12.8579 22.5 12.8579 22.5 12.8578C22.5 12.8578 22.5 12.8578 22.5 12.8577C22.5 12.8577 22.5 12.8576 22.5 12.8576C22.5 12.8576 22.5 12.8575 22.5 12.8575C22.5 12.8574 22.5 12.8574 22.5 12.8574C22.5 12.8573 22.5 12.8573 22.5 12.8572C22.5 12.8572 22.5 12.8572 22.5 12.8571C22.5 12.8571 22.5 12.857 22.5 12.857C22.5 12.857 22.5 12.8569 22.5 12.8569C22.5 12.8569 22.5 12.8568 22.5 12.8568C22.5 12.8567 22.5 12.8567 22.5 12.8567C22.5 12.8566 22.5 12.8566 22.5 12.8565C22.5 12.8565 22.5 12.8565 22.5 12.8564C22.5 12.8564 22.5 12.8564 22.5 12.8563C22.5 12.8563 22.5 12.8562 22.5 12.8562C22.5 12.8562 22.5 12.8561 22.5 12.8561C22.5 12.8561 22.5 12.856 22.5 12.856C22.5 12.8559 22.5 12.8559 22.5 12.8559C22.5 12.8558 22.5 12.8558 22.5 12.8558C22.5 12.8557 22.5 12.8557 22.5 12.8556C22.5 12.8556 22.5 12.8556 22.5 12.8555C22.5 12.8555 22.5 12.8555 22.5 12.8554C22.5 12.8554 22.5 12.8554 22.5 12.8553C22.5 12.8553 22.5 12.8553 22.5 12.8552C22.5 12.8552 22.5 12.8551 22.5 12.8551C22.5 12.8551 22.5 12.855 22.5 12.855C22.5 12.855 22.5 12.8549 22.5 12.8549C22.5 12.8549 22.5 12.8548 22.5 12.8548C22.5 12.8548 22.5 12.8547 22.5 12.8547C22.5 12.8547 22.5 12.8546 22.5 12.8546C22.5 12.8545 22.5 12.8545 22.5 12.8545C22.5 12.8544 22.5 12.8544 22.5 12.8544C22.5 12.8543 22.5 12.8543 22.5 12.8543C22.5 12.8542 22.5 12.8542 22.5 12.8542C22.5 12.8541 22.5 12.8541 22.5 12.8541C22.5 12.854 22.5 12.854 22.5 12.854C22.5 12.8539 22.5 12.8539 22.5 12.8539C22.5 12.8538 22.5 12.8538 22.5 12.8538C22.5 12.8537 22.5 12.8537 22.5 12.8537C22.5 12.8537 22.5 12.8536 22.5 12.8536C22.5 12.8536 22.5 12.8535 22.5 12.8535C22.5 12.8535 22.5 12.8534 22.5 12.8534C22.5 12.8534 22.5 12.8533 22.5 12.8533C22.5 12.8533 22.5 12.8532 22.5 12.8532C22.5 12.8532 22.5 12.8531 22.5 12.8531C22.5 12.8531 22.5 12.8531 22.5 12.853C22.5 12.853 22.5 12.853 22.5 12.8529C22.5 12.8529 22.5 12.8529 22.5 12.8528C22.5 12.8528 22.5 12.8528 22.5 12.8528C22.5 12.8527 22.5 12.8527 22.5 12.8527C22.5 12.8526 22.5 12.8526 22.5 12.8526C22.5 12.8526 22.5 12.8525 22.5 12.8525C22.5 12.8525 22.5 12.8524 22.5 12.8524C22.5 12.8524 22.5 12.8524 22.5 12.8523C22.5 12.8523 22.5 12.8523 22.5 12.8522C22.5 12.8522 22.5 12.8522 22.5 12.8522C22.5 12.8521 22.5 12.8521 22.5 12.8521C22.5 12.8521 22.5 12.852 22.5 12.852C22.5 12.852 22.5 12.8519 22.5 12.8519C22.5 12.8519 22.5 12.8519 22.5 12.8518C22.5 12.8518 22.5 12.8518 22.5 12.8518C22.5 12.8517 22.5 12.8517 22.5 12.8517C22.5 12.8517 22.5 12.8516 22.5 12.8516C22.5 12.8516 22.5 12.8516 22.5 12.8515C22.5 12.8515 22.5 12.8515 22.5 12.8515C22.5 12.8514 22.5 12.8514 22.5 12.8514C22.5 12.8514 22.5 12.8513 22.5 12.8513C22.5 12.8513 22.5 12.8513 22.5 12.8512C22.5 12.8512 22.5 12.8512 22.5 12.8512C22.5 12.8512 22.5 12.8511 22.5 12.8511C22.5 12.8511 22.5 12.8511 22.5 12.851C22.5 12.851 22.5 12.851 22.5 12.851C22.5 12.851 22.5 12.8509 22.5 12.8509C22.5 12.8509 22.5 12.8509 22.5 12.8508C22.5 12.8508 22.5 12.8508 22.5 12.8508C22.5 12.8508 22.5 12.8507 22.5 12.8507C22.5 12.8507 22.5 12.8507 22.5 12.8507C22.5 12.8506 22.5 12.8506 22.5 12.8506C22.5 12.8506 22.5 12.8506 22.5 12.8505C22.5 12.8505 22.5 12.8505 22.5 12.8505C22.5 12.8505 22.5 12.8504 22.5 12.8504C22.5 12.8504 22.5 12.8504 22.5 12.8504C22.5 12.8503 22.5 12.8503 22.5 12.8503C22.5 12.8503 22.5 12.8503 22.5 12.8503C22.5 12.8502 22.5 12.8502 22.5 12.8502C22.5 12.8502 22.5 12.8502 22.5 12.8502C22.5 12.8501 22.5 12.8501 22.5 12.8501C22.5 12.8501 22.5 12.8501 22.5 12.8501C22.5 12.85 22.5 12.85 22.5 12.85C22.5 12.85 22.5 12.85 22.5 12.85C22.5 12.8499 22.5 12.8499 22.5 12.8499C22.5 12.8499 22.5 12.8499 22.5 12.8499C22.5 12.8499 22.5 12.8498 22.5 12.8498C22.5 12.8498 22.5 12.8498 22.5 12.8498C22.5 12.8498 22.5 12.8498 22.5 12.8498C22.5 12.8497 22.5 12.8497 22.5 12.8497C22.5 12.8497 22.5 12.8497 22.5 12.8497C22.5 12.8497 22.5 12.8497 22.5 12.8496C22.5 12.8496 22.5 12.8496 22.5 12.8496C22.5 12.8496 22.5 12.8496 22.5 12.8496C22.5 12.8496 22.5 12.8496 22.5 12.8495C22.5 12.8495 22.5 12.8495 22.5 12.8495C22.5 12.8495 22.5 12.8495 22.5 12.8495C22.5 12.8495 22.5 12.8495 22.5 12.8495C22.5 12.8494 22.5 12.8494 22.5 12.8494C22.5 12.8494 22.5 12.8494 22.5 12.8494C22.5 12.8494 22.5 12.8494 22.5 12.8494C22.5 12.8494 22.5 12.8494 22.5 12.8494C22.5 12.8493 22.5 12.8493 22.5 12.8493C22.5 12.8493 22.5 12.8493 22.5 12.8493C22.5 12.8493 22.5 12.8493 22.5 12.8493C22.5 12.8493 22.5 12.8493 22.5 12.8493C22.5 12.8493 22.5 12.8493 22.5 12.8493C22.5 12.8493 22.5 12.8493 22.5 12.8492C22.5 12.8492 22.5 12.8492 22.5 12.8492C22.5 12.8492 22.5 12.8492 22.5 12.8492C22.5 12.8492 22.5 12.8492 22.5 12.8492C22.5 12.8492 22.5 12.8492 22.5 12.8492C22.5 12.8492 22.5 12.8492 22.5 12.8492C22.5 12.8492 22.5 12.8492 22.5 12.8492C22.5 12.8492 22.5 12.8492 22.5 12.8492C22.5 12.8492 22.5 12.8492 22.5 12.8492C22.5 12.8492 22.5 12.8492 22 12.8492C21.5 12.8492 21.5 12.8492 21.5 12.8492C21.5 12.8492 21.5 12.8492 21.5 12.8492C21.5 12.8492 21.5 12.8492 21.5 12.8492C21.5 12.8492 21.5 12.8492 21.5 12.8492C21.5 12.8492 21.5 12.8492 21.5 12.8492C21.5 12.8492 21.5 12.8492 21.5 12.8492C21.5 12.8492 21.5 12.8492 21.5 12.8492C21.5 12.8492 21.5 12.8492 21.5 12.8492C21.5 12.8492 21.5 12.8492 21.5 12.8492C21.5 12.8493 21.5 12.8493 21.5 12.8493C21.5 12.8493 21.5 12.8493 21.5 12.8493C21.5 12.8493 21.5 12.8493 21.5 12.8493C21.5 12.8493 21.5 12.8493 21.5 12.8493C21.5 12.8493 21.5 12.8493 21.5 12.8493C21.5 12.8493 21.5 12.8493 21.5 12.8494C21.5 12.8494 21.5 12.8494 21.5 12.8494C21.5 12.8494 21.5 12.8494 21.5 12.8494C21.5 12.8494 21.5 12.8494 21.5 12.8494C21.5 12.8494 21.5 12.8494 21.5 12.8495C21.5 12.8495 21.5 12.8495 21.5 12.8495C21.5 12.8495 21.5 12.8495 21.5 12.8495C21.5 12.8495 21.5 12.8495 21.5 12.8495C21.5 12.8496 21.5 12.8496 21.5 12.8496C21.5 12.8496 21.5 12.8496 21.5 12.8496C21.5 12.8496 21.5 12.8496 21.5 12.8496C21.5 12.8497 21.5 12.8497 21.5 12.8497C21.5 12.8497 21.5 12.8497 21.5 12.8497C21.5 12.8497 21.5 12.8497 21.5 12.8498C21.5 12.8498 21.5 12.8498 21.5 12.8498C21.5 12.8498 21.5 12.8498 21.5 12.8498C21.5 12.8498 21.5 12.8499 21.5 12.8499C21.5 12.8499 21.5 12.8499 21.5 12.8499C21.5 12.8499 21.5 12.8499 21.5 12.85C21.5 12.85 21.5 12.85 21.5 12.85C21.5 12.85 21.5 12.85 21.5 12.8501C21.5 12.8501 21.5 12.8501 21.5 12.8501C21.5 12.8501 21.5 12.8501 21.5 12.8502C21.5 12.8502 21.5 12.8502 21.5 12.8502C21.5 12.8502 21.5 12.8502 21.5 12.8503C21.5 12.8503 21.5 12.8503 21.5 12.8503C21.5 12.8503 21.5 12.8503 21.5 12.8504C21.5 12.8504 21.5 12.8504 21.5 12.8504C21.5 12.8504 21.5 12.8505 21.5 12.8505C21.5 12.8505 21.5 12.8505 21.5 12.8505C21.5 12.8506 21.5 12.8506 21.5 12.8506C21.5 12.8506 21.5 12.8506 21.5 12.8507C21.5 12.8507 21.5 12.8507 21.5 12.8507C21.5 12.8507 21.5 12.8508 21.5 12.8508C21.5 12.8508 21.5 12.8508 21.5 12.8508C21.5 12.8509 21.5 12.8509 21.5 12.8509C21.5 12.8509 21.5 12.851 21.5 12.851C21.5 12.851 21.5 12.851 21.5 12.851C21.5 12.8511 21.5 12.8511 21.5 12.8511C21.5 12.8511 21.5 12.8512 21.5 12.8512C21.5 12.8512 21.5 12.8512 21.5 12.8512C21.5 12.8513 21.5 12.8513 21.5 12.8513C21.5 12.8513 21.5 12.8514 21.5 12.8514C21.5 12.8514 21.5 12.8514 21.5 12.8515C21.5 12.8515 21.5 12.8515 21.5 12.8515C21.5 12.8516 21.5 12.8516 21.5 12.8516C21.5 12.8516 21.5 12.8517 21.5 12.8517C21.5 12.8517 21.5 12.8517 21.5 12.8518C21.5 12.8518 21.5 12.8518 21.5 12.8518C21.5 12.8519 21.5 12.8519 21.5 12.8519C21.5 12.8519 21.5 12.852 21.5 12.852C21.5 12.852 21.5 12.8521 21.5 12.8521C21.5 12.8521 21.5 12.8521 21.5 12.8522C21.5 12.8522 21.5 12.8522 21.5 12.8522C21.5 12.8523 21.5 12.8523 21.5 12.8523C21.5 12.8524 21.5 12.8524 21.5 12.8524C21.5 12.8524 21.5 12.8525 21.5 12.8525C21.5 12.8525 21.5 12.8526 21.5 12.8526C21.5 12.8526 21.5 12.8526 21.5 12.8527C21.5 12.8527 21.5 12.8527 21.5 12.8528C21.5 12.8528 21.5 12.8528 21.5 12.8528C21.5 12.8529 21.5 12.8529 21.5 12.8529C21.5 12.853 21.5 12.853 21.5 12.853C21.5 12.8531 21.5 12.8531 21.5 12.8531C21.5 12.8531 21.5 12.8532 21.5 12.8532C21.5 12.8532 21.5 12.8533 21.5 12.8533C21.5 12.8533 21.5 12.8534 21.5 12.8534C21.5 12.8534 21.5 12.8535 21.5 12.8535C21.5 12.8535 21.5 12.8536 21.5 12.8536C21.5 12.8536 21.5 12.8537 21.5 12.8537C21.5 12.8537 21.5 12.8537 21.5 12.8538C21.5 12.8538 21.5 12.8538 21.5 12.8539C21.5 12.8539 21.5 12.8539 21.5 12.854C21.5 12.854 21.5 12.854 21.5 12.8541C21.5 12.8541 21.5 12.8541 21.5 12.8542C21.5 12.8542 21.5 12.8542 21.5 12.8543C21.5 12.8543 21.5 12.8543 21.5 12.8544C21.5 12.8544 21.5 12.8544 21.5 12.8545C21.5 12.8545 21.5 12.8545 21.5 12.8546C21.5 12.8546 21.5 12.8547 21.5 12.8547C21.5 12.8547 21.5 12.8548 21.5 12.8548C21.5 12.8548 21.5 12.8549 21.5 12.8549C21.5 12.8549 21.5 12.855 21.5 12.855C21.5 12.855 21.5 12.8551 21.5 12.8551C21.5 12.8551 21.5 12.8552 21.5 12.8552C21.5 12.8553 21.5 12.8553 21.5 12.8553C21.5 12.8554 21.5 12.8554 21.5 12.8554C21.5 12.8555 21.5 12.8555 21.5 12.8555C21.5 12.8556 21.5 12.8556 21.5 12.8556C21.5 12.8557 21.5 12.8557 21.5 12.8558C21.5 12.8558 21.5 12.8558 21.5 12.8559C21.5 12.8559 21.5 12.8559 21.5 12.856C21.5 12.856 21.5 12.8561 21.5 12.8561C21.5 12.8561 21.5 12.8562 21.5 12.8562C21.5 12.8562 21.5 12.8563 21.5 12.8563C21.5 12.8564 21.5 12.8564 21.5 12.8564C21.5 12.8565 21.5 12.8565 21.5 12.8565C21.5 12.8566 21.5 12.8566 21.5 12.8567C21.5 12.8567 21.5 12.8567 21.5 12.8568C21.5 12.8568 21.5 12.8569 21.5 12.8569C21.5 12.8569 21.5 12.857 21.5 12.857C21.5 12.857 21.5 12.8571 21.5 12.8571C21.5 12.8572 21.5 12.8572 21.5 12.8572C21.5 12.8573 21.5 12.8573 21.5 12.8574C21.5 12.8574 21.5 12.8574 21.5 12.8575C21.5 12.8575 21.5 12.8576 21.5 12.8576C21.5 12.8576 21.5 12.8577 21.5 12.8577C21.5 12.8578 21.5 12.8578 21.5 12.8578C21.5 12.8579 21.5 12.8579 21.5 12.858C21.5 12.858 21.5 12.858 21.5 12.8581C21.5 12.8581 21.5 12.8582 21.5 12.8582C21.5 12.8582 21.5 12.8583 21.5 12.8583C21.5 12.8584 21.5 12.8584 21.5 12.8584C21.5 12.8585 21.5 12.8585 21.5 12.8586C21.5 12.8586 21.5 12.8586 21.5 12.8587C21.5 12.8587 21.5 12.8588 21.5 12.8588C21.5 12.8588 21.5 12.8589 21.5 12.8589C21.5 12.859 21.5 12.859 21.5 12.859C21.5 12.8591 21.5 12.8591 21.5 12.8592C21.5 12.8592 21.5 12.8593 21.5 12.8593C21.5 12.8593 21.5 12.8594 21.5 12.8594C21.5 12.8595 21.5 12.8595 21.5 12.8595C21.5 12.8596 21.5 12.8596 21.5 12.8597C21.5 12.8597 21.5 12.8598 21.5 12.8598C21.5 12.8598 21.5 12.8599 21.5 12.8599C21.5 12.86 21.5 12.86 21.5 12.86C21.5 12.8601 21.5 12.8601 21.5 12.8602C21.5 12.8602 21.5 12.8603 21.5 12.8603C21.5 12.8603 21.5 12.8604 21.5 12.8604C21.5 12.8605 21.5 12.8605 21.5 12.8606C21.5 12.8606 21.5 12.8606 21.5 12.8607C21.5 12.8607 21.5 12.8608 21.5 12.8608C21.5 12.8608 21.5 12.8609 21.5 12.8609C21.5 12.861 21.5 12.861 21.5 12.8611C21.5 12.8611 21.5 12.8611 21.5 12.8612C21.5 12.8612 21.5 12.8613 21.5 12.8613C21.5 12.8614 21.5 12.8614 21.5 12.8614C21.5 12.8615 21.5 12.8615 21.5 12.8616C21.5 12.8616 21.5 12.8617 21.5 12.8617C21.5 12.8617 21.5 12.8618 21.5 12.8618C21.5 12.8619 21.5 12.8619 21.5 12.862C21.5 12.862 21.5 12.862 21.5 12.8621C21.5 12.8621 21.5 12.8622 21.5 12.8622C21.5 12.8623 21.5 12.8623 21.5 12.8623C21.5 12.8624 21.5 12.8624 21.5 12.8625C21.5 12.8625 21.5 12.8626 21.5 12.8626C21.5 12.8626 21.5 12.8627 21.5 12.8627C21.5 12.8628 21.5 12.8628 21.5 12.8629C21.5 12.8629 21.5 12.863 21.5 12.863C21.5 12.863 21.5 12.8631 21.5 12.8631C21.5 12.8632 21.5 12.8632 21.5 12.8633C21.5 12.8633 21.5 12.8633 21.5 12.8634C21.5 12.8634 21.5 12.8635 21.5 12.8635C21.5 12.8636 21.5 12.8636 21.5 12.8636C21.5 12.8637 21.5 12.8637 21.5 12.8638C21.5 12.8638 21.5 12.8639 21.5 12.8639C21.5 12.8639 21.5 12.864 21.5 12.864C21.5 12.8641 21.5 12.8641 21.5 12.8642C21.5 12.8642 21.5 12.8643 21.5 12.8643C21.5 12.8643 21.5 12.8644 21.5 12.8644C21.5 12.8645 21.5 12.8645 21.5 12.8646C21.5 12.8646 21.5 12.8646 21.5 12.8647C21.5 12.8647 21.5 12.8648 21.5 12.8648C21.5 12.8649 21.5 12.8649 21.5 12.8649C21.5 12.865 21.5 12.865 21.5 12.8651C21.5 12.8651 21.5 12.8652 21.5 12.8652C21.5 12.8652 21.5 12.8653 21.5 12.8653C21.5 12.8654 21.5 12.8654 21.5 12.8655C21.5 12.8655 21.5 12.8656 21.5 12.8656C21.5 12.8656 21.5 12.8657 21.5 12.8657C21.5 12.8658 21.5 12.8658 21.5 12.8659C21.5 12.8659 21.5 12.8659 21.5 12.866C21.5 12.866 21.5 12.8661 21.5 12.8661C21.5 12.8662 21.5 12.8662 21.5 12.8662C21.5 12.8663 21.5 12.8663 21.5 12.8664C21.5 12.8664 21.5 12.8665 21.5 12.8665C21.5 12.8665 21.5 12.8666 21.5 12.8666C21.5 12.8667 21.5 12.8667 21.5 12.8668C21.5 12.8668 21.5 12.8668 21.5 12.8669C21.5 12.8669 21.5 12.867 21.5 12.867C21.5 12.8671 21.5 12.8671 21.5 12.8671C21.5 12.8672 21.5 12.8672 21.5 12.8673C21.5 12.8673 21.5 12.8674 21.5 12.8674C21.5 12.8674 21.5 12.8675 21.5 12.8675C21.5 12.8676 21.5 12.8676 21.5 12.8676C21.5 12.8677 21.5 12.8677 21.5 12.8678C21.5 12.8678 21.5 12.8679 21.5 12.8679C21.5 12.8679 21.5 12.868 21.5 12.868C21.5 12.8681 21.5 12.8681 21.5 12.8682C21.5 12.8682 21.5 12.8682 21.5 12.8683C21.5 12.8683 21.5 12.8684 21.5 12.8684C21.5 12.8684 21.5 12.8685 21.5 12.8685C21.5 12.8686 21.5 12.8686 21.5 12.8686C21.5 12.8687 21.5 12.8687 21.5 12.8688C21.5 12.8688 21.5 12.8689 21.5 12.8689C21.5 12.8689 21.5 12.869 21.5 12.869C21.5 12.8691 21.5 12.8691 21.5 12.8691C21.5 12.8692 21.5 12.8692 21.5 12.8693C21.5 12.8693 21.5 12.8693 21.5 12.8694C21.5 12.8694 21.5 12.8695 21.5 12.8695C21.5 12.8696 21.5 12.8696 21.5 12.8696C21.5 12.8697 21.5 12.8697 21.5 12.8698C21.5 12.8698 21.5 12.8698 21.5 12.8699C21.5 12.8699 21.5 12.87 21.5 12.87C21.5 12.87 21.5 12.8701 21.5 12.8701C21.5 12.8702 21.5 12.8702 21.5 12.8702C21.5 12.8703 21.5 12.8703 21.5 12.8704C21.5 12.8704 21.5 12.8704 21.5 12.8705C21.5 12.8705 21.5 12.8706 21.5 12.8706C21.5 12.8706 21.5 12.8707 21.5 12.8707C21.5 12.8707 21.5 12.8708 21.5 12.8708C21.5 12.8709 21.5 12.8709 21.5 12.8709C21.5 12.871 21.5 12.871 21.5 12.8711C21.5 12.8711 21.5 12.8711 21.5 12.8712C21.5 12.8712 21.5 12.8712 21.5 12.8713C21.5 12.8713 21.5 12.8714 21.5 12.8714C21.5 12.8714 21.5 12.8715 21.5 12.8715C21.5 12.8716 21.5 12.8716 21.5 12.8716C21.5 12.8717 21.5 12.8717 21.5 12.8717C21.5 12.8718 21.5 12.8718 21.5 12.8719C21.5 12.8719 21.5 12.8719 21.5 12.872C21.5 12.872 21.5 12.872 21.5 12.8721C21.5 12.8721 21.5 12.8722 21.5 12.8722C21.5 12.8722 21.5 12.8723 21.5 12.8723C21.5 12.8723 21.5 12.8724 21.5 12.8724C21.5 12.8724 21.5 12.8725 21.5 12.8725C21.5 12.8726 21.5 12.8726 21.5 12.8726C21.5 12.8727 21.5 12.8727 21.5 12.8727C21.5 12.8728 21.5 12.8728 21.5 12.8728C21.5 12.8729 21.5 12.8729 21.5 12.8729C21.5 12.873 21.5 12.873 21.5 12.8731C21.5 12.8731 21.5 12.8731 21.5 12.8732C21.5 12.8732 21.5 12.8732 21.5 12.8733C21.5 12.8733 21.5 12.8733 21.5 12.8734C21.5 12.8734 21.5 12.8734 21.5 12.8735C21.5 12.8735 21.5 12.8735 21.5 12.8736C21.5 12.8736 21.5 12.8736 21.5 12.8737C21.5 12.8737 21.5 12.8737 21.5 12.8738C21.5 12.8738 21.5 12.8738 21.5 12.8739C21.5 12.8739 21.5 12.8739 21.5 12.874C21.5 12.874 21.5 12.874 21.5 12.8741C21.5 12.8741 21.5 12.8741 21.5 12.8742C21.5 12.8742 21.5 12.8742 21.5 12.8743C21.5 12.8743 21.5 12.8743 21.5 12.8744C21.5 12.8744 21.5 12.8744 21.5 12.8745C21.5 12.8745 21.5 12.8745 21.5 12.8746C21.5 12.8746 21.5 12.8746 21.5 12.8747C21.5 12.8747 21.5 12.8747 21.5 12.8747C21.5 12.8748 21.5 12.8748 21.5 12.8748C21.5 12.8749 21.5 12.8749 21.5 12.8749C21.5 12.875 21.5 12.875 21.5 12.875C21.5 12.875 21.5 12.8751 21.5 12.8751C21.5 12.8751 21.5 12.8752 21.5 12.8752C21.5 12.8752 21.5 12.8753 21.5 12.8753C21.5 12.8753 21.5 12.8753 21.5 12.8754C21.5 12.8754 21.5 12.8754 21.5 12.8755C21.5 12.8755 21.5 12.8755 21.5 12.8755C21.5 12.8756 21.5 12.8756 21.5 12.8756C21.5 12.8757 21.5 12.8757 21.5 12.8757C21.5 12.8757 21.5 12.8758 21.5 12.8758C21.5 12.8758 21.5 12.8759 21.5 12.8759C21.5 12.8759 21.5 12.8759 21.5 12.876C21.5 12.876 21.5 12.876 21.5 12.876C21.5 12.8761 21.5 12.8761 21.5 12.8761C21.5 12.8761 21.5 12.8762 21.5 12.8762C21.5 12.8762 21.5 12.8762 21.5 12.8763C21.5 12.8763 21.5 12.8763 21.5 12.8763C21.5 12.8764 21.5 12.8764 21.5 12.8764C21.5 12.8765 21.5 12.8765 21.5 12.8765C21.5 12.8765 21.5 12.8765 21.5 12.8766C21.5 12.8766 21.5 12.8766 21.5 12.8766C21.5 12.8767 21.5 12.8767 21.5 12.8767C21.5 12.8767 21.5 12.8768 21.5 12.8768C21.5 12.8768 21.5 12.8768 21.5 12.8769C21.5 12.8769 21.5 12.8769 21.5 12.8769C21.5 12.8769 21.5 12.877 21.5 12.877C21.5 12.877 21.5 12.877 21.5 12.8771C21.5 12.8771 21.5 12.8771 21.5 12.8771C21.5 12.8771 21.5 12.8772 21.5 12.8772C21.5 12.8772 21.5 12.8772 21.5 12.8772C21.5 12.8773 21.5 12.8773 21.5 12.8773C21.5 12.8773 21.5 12.8774 21.5 12.8774C21.5 12.8774 21.5 12.8774 21.5 12.8774C21.5 12.8774 21.5 12.8775 21.5 12.8775C21.5 12.8775 21.5 12.8775 21.5 12.8775C21.5 12.8776 21.5 12.8776 21.5 12.8776C21.5 12.8776 21.5 12.8776 21.5 12.8777C21.5 12.8777 21.5 12.8777 21.5 12.8777C21.5 12.8777 21.5 12.8777 21.5 12.8778C21.5 12.8778 21.5 12.8778 21.5 12.8778C21.5 12.8778 21.5 12.8778 21.5 12.8779C21.5 12.8779 21.5 12.8779 21.5 12.8779C21.5 12.8779 21.5 12.8779 21.5 12.878C21.5 12.878 21.5 12.878 21.5 12.878C21.5 12.878 21.5 12.878 21.5 12.8781C21.5 12.8781 21.5 12.8781 21.5 12.8781C21.5 12.8781 21.5 12.8781 21.5 12.8781C21.5 12.8782 21.5 12.8782 21.5 12.8782C21.5 12.8782 21.5 12.8782 21.5 12.8782C21.5 12.8782 21.5 12.8782 21.5 12.8783C21.5 12.8783 21.5 12.8783 21.5 12.8783C21.5 12.8783 21.5 12.8783 21.5 12.8783C21.5 12.8783 21.5 12.8784 21.5 12.8784C21.5 12.8784 21.5 12.8784 21.5 12.8784C21.5 12.8784 21.5 12.8784 21.5 12.8784C21.5 12.8784 21.5 12.8785 21.5 12.8785C21.5 12.8785 21.5 12.8785 21.5 12.8785C21.5 12.8785 21.5 12.8785 21.5 12.8785C21.5 12.8785 21.5 12.8785 21.5 12.8786C21.5 12.8786 21.5 12.8786 21.5 12.8786C21.5 12.8786 21.5 12.8786 21.5 12.8786C21.5 12.8786 21.5 12.8786 21.5 12.8786C21.5 12.8786 21.5 12.8786 21.5 12.8786C21.5 12.8787 21.5 12.8787 21.5 12.8787C21.5 12.8787 21.5 12.8787 21.5 12.8787C21.5 12.8787 21.5 12.8787 21.5 12.8787C21.5 12.8787 21.5 12.8787 21.5 12.8787C21.5 12.8787 21.5 12.8787 21.5 12.8787C21.5 12.8787 21.5 12.8787 21.5 12.8787C21.5 12.8788 21.5 12.8788 21.5 12.8788C21.5 12.8788 21.5 12.8788 21.5 12.8788C21.5 12.8788 21.5 12.8788 21.5 12.8788C21.5 12.8788 21.5 12.8788 21.5 12.8788C21.5 12.8788 21.5 12.8788 21.5 12.8788C21.5 12.8788 21.5 12.8788 21.5 12.8788C21.5 12.8788 21.5 12.8788 21.5 12.8788C21.5 12.8788 21.5 12.8788 21.5 12.8788C22 12.8788 22.5 12.8788 22.5 12.8788C22.5 12.8788 22.5 12.8788 22.5 12.8788C22.5 12.8788 22.5 12.8788 22.5 12.8788C22.5 12.8788 22.5 12.8788 22.5 12.8788C22.5 12.8788 22.5 12.8788 22.5 12.8788C22.5 12.8788 22.5 12.8788 22.5 12.8788C22.5 12.8788 22.5 12.8788 22.5 12.8788C22.5 12.8788 22.5 12.8788 22.5 12.8788C22.5 12.8787 22.5 12.8787 22.5 12.8787C22.5 12.8787 22.5 12.8787 22.5 12.8787C22.5 12.8787 22.5 12.8787 22.5 12.8787C22.5 12.8787 22.5 12.8787 22.5 12.8787C22.5 12.8787 22.5 12.8787 22.5 12.8787C22.5 12.8787 22.5 12.8787 22.5 12.8787C22.5 12.8786 22.5 12.8786 22.5 12.8786C22.5 12.8786 22.5 12.8786 22.5 12.8786C22.5 12.8786 22.5 12.8786 22.5 12.8786C22.5 12.8786 22.5 12.8786 22.5 12.8786C22.5 12.8785 22.5 12.8785 22.5 12.8785C22.5 12.8785 22.5 12.8785 22.5 12.8785C22.5 12.8785 22.5 12.8785 22.5 12.8785C22.5 12.8784 22.5 12.8784 22.5 12.8784C22.5 12.8784 22.5 12.8784 22.5 12.8784C22.5 12.8784 22.5 12.8784 22.5 12.8784C22.5 12.8783 22.5 12.8783 22.5 12.8783C22.5 12.8783 22.5 12.8783 22.5 12.8783C22.5 12.8783 22.5 12.8782 22.5 12.8782C22.5 12.8782 22.5 12.8782 22.5 12.8782C22.5 12.8782 22.5 12.8782 22.5 12.8781C22.5 12.8781 22.5 12.8781 22.5 12.8781C22.5 12.8781 22.5 12.8781 22.5 12.878C22.5 12.878 22.5 12.878 22.5 12.878C22.5 12.878 22.5 12.878 22.5 12.8779C22.5 12.8779 22.5 12.8779 22.5 12.8779C22.5 12.8779 22.5 12.8778 22.5 12.8778C22.5 12.8778 22.5 12.8778 22.5 12.8778C22.5 12.8777 22.5 12.8777 22.5 12.8777C22.5 12.8777 22.5 12.8777 22.5 12.8776C22.5 12.8776 22.5 12.8776 22.5 12.8776C22.5 12.8776 22.5 12.8775 22.5 12.8775C22.5 12.8775 22.5 12.8775 22.5 12.8774C22.5 12.8774 22.5 12.8774 22.5 12.8774C22.5 12.8773 22.5 12.8773 22.5 12.8773C22.5 12.8773 22.5 12.8772 22.5 12.8772C22.5 12.8772 22.5 12.8772 22.5 12.8771C22.5 12.8771 22.5 12.8771 22.5 12.8771C22.5 12.877 22.5 12.877 22.5 12.877C22.5 12.877 22.5 12.8769 22.5 12.8769C22.5 12.8769 22.5 12.8768 22.5 12.8768C22.5 12.8768 22.5 12.8768 22.5 12.8767C22.5 12.8767 22.5 12.8767 22.5 12.8766C22.5 12.8766 22.5 12.8766 22.5 12.8766C22.5 12.8765 22.5 12.8765 22.5 12.8765C22.5 12.8764 22.5 12.8764 22.5 12.8764C22.5 12.8763 22.5 12.8763 22.5 12.8763C22.5 12.8762 22.5 12.8762 22.5 12.8762C22.5 12.8761 22.5 12.8761 22.5 12.8761C22.5 12.876 22.5 12.876 22.5 12.876C22.5 12.8759 22.5 12.8759 22.5 12.8759C22.5 12.8758 22.5 12.8758 22.5 12.8758C22.5 12.8757 22.5 12.8757 22.5 12.8757C22.5 12.8756 22.5 12.8756 22.5 12.8755C22.5 12.8755 22.5 12.8755 22.5 12.8754C22.5 12.8754 22.5 12.8754 22.5 12.8753C22.5 12.8753 22.5 12.8752 22.5 12.8752C22.5 12.8752 22.5 12.8751 22.5 12.8751C22.5 12.875 22.5 12.875 22.5 12.875C22.5 12.8749 22.5 12.8749 22.5 12.8748C22.5 12.8748 22.5 12.8748 22.5 12.8747C22.5 12.8747 22.5 12.8746 22.5 12.8746C22.5 12.8746 22.5 12.8745 22.5 12.8745C22.5 12.8744 22.5 12.8744 22.5 12.8743C22.5 12.8743 22.5 12.8742 22.5 12.8742C22.5 12.8742 22.5 12.8741 22.5 12.8741C22.5 12.874 22.5 12.874 22.5 12.8739C22.5 12.8739 22.5 12.8738 22.5 12.8738C22.5 12.8737 22.5 12.8737 22.5 12.8736C22.5 12.8736 22.5 12.8735 22.5 12.8735C22.5 12.8735 22.5 12.8734 22.5 12.8734C22.5 12.8733 22.5 12.8733 22.5 12.8732C22.5 12.8732 22.5 12.8731 22.5 12.8731C22.5 12.873 22.5 12.873 22.5 12.8729C22.5 12.8729 22.5 12.8728 22.5 12.8727C22.5 12.8727 22.5 12.8726 22.5 12.8726C22.5 12.8725 22.5 12.8725 22.5 12.8724C22.5 12.8724 22.5 12.8723 22.5 12.8723C22.5 12.8722 22.5 12.8722 22.5 12.8721C22.5 12.872 22.5 12.872 22.5 12.8719C22.5 12.8719 22.5 12.8718 22.5 12.8718C22.5 12.8717 22.5 12.8717 22.5 12.8716C22.5 12.8715 22.5 12.8715 22.5 12.8714C22.5 12.8714 22.5 12.8713 22.5 12.8712C22.5 12.8712 22.5 12.8711 22.5 12.8711C22.5 12.871 22.5 12.8709 22.5 12.8709C22.5 12.8708 22.5 12.8708 22.5 12.8707C22.5 12.8706 22.5 12.8706 22.5 12.8705C22.5 12.8705 22.5 12.8704 22.5 12.8703C22.5 12.8703 22.5 12.8702 22.5 12.8701C22.5 12.8701 22.5 12.87 22.5 12.8699C22.5 12.8699 22.5 12.8698 22.5 12.8698C22.5 12.8697 22.5 12.8696 22.5 12.8696C22.5 12.8695 22.5 12.8694 22.5 12.8694C22.5 12.8693 22.5 12.8692 22.5 12.8692C22.5 12.8691 22.5 12.869 22.5 12.8689C22.5 12.8689 22.5 12.8688 22.5 12.8687C22.5 12.8687 22.5 12.8686 22.5 12.8685C22.5 12.8685 22.5 12.8684 22.5 12.8683C22.5 12.8682 22.5 12.8682 22.5 12.8681C22.5 12.868 22.5 12.868 22.5 12.8679C22.5 12.8678 22.5 12.8677 22.5 12.8677C22.5 12.8676 22.5 12.8675 22.5 12.8674C22.5 12.8674 22.5 12.8673 22.5 12.8672C22.5 12.8671 22.5 12.8671 22.5 12.867C22.5 12.8669 22.5 12.8668 22.5 12.8668C22.5 12.8667 22.5 12.8666 22.5 12.8665C22.5 12.8665 22.5 12.8664 22.5 12.8663C22.5 12.8662 22.5 12.8661 22.5 12.8661C22.5 12.866 22.5 12.8659 22.5 12.8658C22.5 12.8657 22.5 12.8657 22.5 12.8656C22.5 12.8655 22.5 12.8654 22.5 12.8653C22.5 12.8652 22.5 12.8652 22.5 12.8651C22.5 12.865 22.5 12.8649 22.5 12.8648C22.5 12.8647 22.5 12.8647 22.5 12.8646C22.5 12.8645 22.5 12.8644 22.5 12.8643C22.5 12.8642 22.5 12.8641 22.5 12.8641C22.5 12.864 22.5 12.8639 22.5 12.8638C22.5 12.8637 22.5 12.8636 22.5 12.8635C22.5 12.8635 22.5 12.8634 22.5 12.8633C22.5 12.8632 22.5 12.8631 22.5 12.863C22.5 12.8629 22.5 12.8628 22.5 12.8627C22.5 12.8626 22.5 12.8625 22.5 12.8625C22.5 12.8624 22.5 12.8623 22.5 12.8622C22.5 12.8621 22.5 12.862 22.5 12.8619C22.5 12.8618 22.5 12.8617 22.5 12.8616C22.5 12.8615 22.5 12.8614 22.5 12.8613C22.5 12.8612 22.5 12.8611 22.5 12.861C22.5 12.8609 22.5 12.8609 22.5 12.8608C22.5 12.8607 22.5 12.8606 22.5 12.8605C22.5 12.8604 22.5 12.8603 22.5 12.8602C22.5 12.8601 22.5 12.86 22.5 12.8599C22.5 12.8598 22.5 12.8597 22.5 12.8596C22.5 12.8595 22.5 12.8594 22.5 12.8593C22.5 12.8592 22.5 12.8591 22.5 12.859C22.5 12.8589 22.5 12.8587 22.5 12.8586C22.5 12.8585 22.5 12.8584 22.5 12.8583C22.5 12.8582 22.5 12.8581 22.5 12.858C22.5 12.8579 22.5 12.8578 22.5 12.8577C22.5 12.8576 22.5 12.8575 22.5 12.8574C22.5 12.8573 22.5 12.8572 22.5 12.8571C22.5 12.8569 22.5 12.8568 22.5 12.8567C22.5 12.8566 22.5 12.8565 22.5 12.8564C22.5 12.8563 22.5 12.8562 22.5 12.8561C22.5 12.856 22.5 12.8558 22.5 12.8557C22.5 12.8556 22.5 12.8555 22.5 12.8554C22.5 12.8553 22.5 12.8552 22.5 12.855C22.5 12.8549 22.5 12.8548 22.5 12.8547C22.5 12.8546 22.5 12.8545 22.5 12.8544C22.5 12.8542 22.5 12.8541 22.5 12.854C22.5 12.8539 22.5 12.8538 22.5 12.8537C22.5 12.8535 22.5 12.8534 22.5 12.8533C22.5 12.8532 22.5 12.8531 22.5 12.8529C22.5 12.8528 22.5 12.8527 22.5 12.8526C22.5 12.8525 22.5 12.8523 22.5 12.8522C22.5 12.8521 22.5 12.852 22.5 12.8518C22.5 12.8517 22.5 12.8516 22.5 12.8515C22.5 12.8514 22.5 12.8512 22.5 12.8511C22.5 12.851 22.5 12.8509 22.5 12.8507C22.5 12.8506 22.5 12.8505 22.5 12.8503C22.5 12.8502 22.5 12.8501 22.5 12.85C22.5 12.8498 22.5 12.8497 22.5 12.8496C22.5 12.8494 22.5 12.8493 22.5 12.8492H21.5ZM8 20.5H10.5444V19.5H8V20.5ZM11.0444 20V12.1984H10.0444V20H11.0444ZM10.5444 11.6984H8V12.6984H10.5444V11.6984ZM7.5 12.1984V20H8.5V12.1984H7.5Z" fill="white"/>
</svg>
