<svg width="95" height="27" viewBox="0 0 95 27" fill="none" xmlns="http://www.w3.org/2000/svg">
<g id="liteflix">
<g id="liteflix_2">
<g id="Group 3">
<mask id="mask0" mask-type="alpha" maskUnits="userSpaceOnUse" x="0" y="0" width="5" height="26">
<path id="Clip 2" fill-rule="evenodd" clip-rule="evenodd" d="M0 0.18917H4.99043V26H0V0.18917Z" fill="white"/>
</mask>
<g mask="url(#mask0)">
<path id="Fill 1" fill-rule="evenodd" clip-rule="evenodd" d="M4.165 26.0001H0.825C0.274783 26.0001 0 25.7427 0 25.2288V0.960029C0 0.44592 0.274783 0.18917 0.825 0.18917H4.165C4.71522 0.18917 4.99043 0.44592 4.99043 0.960029V25.2288C4.99043 25.7427 4.71522 26.0001 4.165 26.0001Z" fill="#FF0000"/>
</g>
</g>
<g id="Group 6">
<mask id="mask1" mask-type="alpha" maskUnits="userSpaceOnUse" x="9" y="0" width="5" height="5">
<path id="Clip 5" fill-rule="evenodd" clip-rule="evenodd" d="M9.13452 0.193958H13.917V4.97621H9.13452V0.193958Z" fill="white"/>
</mask>
<g mask="url(#mask1)">
<path id="Fill 4" fill-rule="evenodd" clip-rule="evenodd" d="M9.13452 4.22308V0.946833C9.13452 0.444958 9.38515 0.193916 9.88744 0.193916H13.1637C13.6656 0.193916 13.917 0.432666 13.917 0.909125V4.22287C13.917 4.72558 13.6658 4.97621 13.1637 4.97621H9.88744C9.38515 4.97642 9.13452 4.72579 9.13452 4.22308Z" fill="#FF0000"/>
</g>
</g>
<g id="Group 9">
<mask id="mask2" mask-type="alpha" maskUnits="userSpaceOnUse" x="9" y="7" width="5" height="19">
<path id="Clip 8" fill-rule="evenodd" clip-rule="evenodd" d="M9.13452 7.16638H13.917V26H9.13452V7.16638Z" fill="white"/>
</mask>
<g mask="url(#mask2)">
<path id="Fill 7" fill-rule="evenodd" clip-rule="evenodd" d="M9.13452 25.2243V7.94232C9.13452 7.42503 9.38515 7.16638 9.88744 7.16638H13.126C13.6533 7.16638 13.917 7.42503 13.917 7.94232V25.2243C13.917 25.5445 13.8606 25.7543 13.7474 25.8522C13.6345 25.951 13.4395 26.0001 13.1637 26.0001H9.92515C9.39785 26.0001 9.13452 25.7412 9.13452 25.2243Z" fill="#FF0000"/>
</g>
</g>
<g id="Group 12">
<mask id="mask3" mask-type="alpha" maskUnits="userSpaceOnUse" x="62" y="0" width="5" height="26">
<path id="Clip 11" fill-rule="evenodd" clip-rule="evenodd" d="M62.1042 0.18917H66.8867V26H62.1042V0.18917Z" fill="white"/>
</mask>
<g mask="url(#mask3)">
<path id="Fill 10" fill-rule="evenodd" clip-rule="evenodd" d="M66.0957 26.0001H62.8949C62.3674 26.0001 62.1042 25.7427 62.1042 25.2288V0.960029C62.1042 0.44592 62.3674 0.18917 62.8949 0.18917H66.0957C66.623 0.18917 66.8867 0.44592 66.8867 0.960029V25.2288C66.8867 25.7427 66.623 26.0001 66.0957 26.0001Z" fill="#FF0000"/>
</g>
</g>
<g id="Group 15">
<mask id="mask4" mask-type="alpha" maskUnits="userSpaceOnUse" x="71" y="0" width="5" height="5">
<path id="Clip 14" fill-rule="evenodd" clip-rule="evenodd" d="M71.0305 0.193958H75.8128V4.97621H71.0305V0.193958Z" fill="white"/>
</mask>
<g mask="url(#mask4)">
<path id="Fill 13" fill-rule="evenodd" clip-rule="evenodd" d="M71.0305 4.22308V0.946833C71.0305 0.444958 71.2809 0.193916 71.7832 0.193916H75.0597C75.5614 0.193916 75.8128 0.432666 75.8128 0.909125V4.22287C75.8128 4.72558 75.5618 4.97621 75.0597 4.97621H71.7832C71.2809 4.97642 71.0305 4.72579 71.0305 4.22308Z" fill="#FF0000"/>
</g>
</g>
<g id="Group 18">
<mask id="mask5" mask-type="alpha" maskUnits="userSpaceOnUse" x="71" y="7" width="5" height="19">
<path id="Clip 17" fill-rule="evenodd" clip-rule="evenodd" d="M71.0305 7.16638H75.8128V26H71.0305V7.16638Z" fill="white"/>
</mask>
<g mask="url(#mask5)">
<path id="Fill 16" fill-rule="evenodd" clip-rule="evenodd" d="M71.0305 25.2243V7.94232C71.0305 7.42503 71.2809 7.16638 71.7832 7.16638H75.0218C75.5491 7.16638 75.8128 7.42503 75.8128 7.94232V25.2243C75.8128 25.5445 75.7566 25.7543 75.6434 25.8522C75.5305 25.951 75.3353 26.0001 75.0597 26.0001H71.8211C71.2939 26.0001 71.0305 25.7412 71.0305 25.2243Z" fill="#FF0000"/>
</g>
</g>
<g id="Group 21">
<mask id="mask6" mask-type="alpha" maskUnits="userSpaceOnUse" x="16" y="2" width="12" height="24">
<path id="Clip 20" fill-rule="evenodd" clip-rule="evenodd" d="M16.0708 2.17774H27.8349V26H16.0708V2.17774Z" fill="white"/>
</mask>
<g mask="url(#mask6)">
<path id="Fill 19" fill-rule="evenodd" clip-rule="evenodd" d="M18.3132 11.0412H16.8427C16.5488 11.0412 16.3466 10.9915 16.2364 10.8916C16.1261 10.7923 16.0708 10.5924 16.0708 10.2931V7.71285C16.0708 7.18919 16.3283 6.92726 16.8427 6.92726H18.3132C18.5827 6.92726 18.7177 6.7905 18.7177 6.51574V2.96333C18.7177 2.43967 18.9872 2.17774 19.5266 2.17774H22.6147C23.129 2.17774 23.3865 2.43967 23.3865 2.96333V6.51574C23.3865 6.7905 23.5336 6.92726 23.8279 6.92726H26.6955C27.2103 6.92726 27.4677 7.18919 27.4677 7.71285V10.2933C27.4677 10.568 27.4126 10.7608 27.3022 10.873C27.192 10.9851 26.9896 11.0414 26.6955 11.0414H23.8279C23.5338 11.0414 23.3865 11.1788 23.3865 11.4529V19.7174C23.3865 20.4908 23.5576 21.0453 23.9013 21.3819C24.2442 21.7185 24.8078 21.8869 25.5925 21.8869H27.063C27.5774 21.8869 27.8349 22.148 27.8349 22.6717V25.2519C27.8349 25.5266 27.7797 25.7195 27.6693 25.8316C27.5591 25.9437 27.3571 26 27.063 26H24.8202C22.884 26 21.3827 25.4764 20.3168 24.4295C19.2508 23.3824 18.7175 21.8865 18.7175 19.9417V11.4527C18.7177 11.1786 18.5825 11.0412 18.3132 11.0412Z" fill="#FF0000"/>
</g>
</g>
<path id="Fill 22" fill-rule="evenodd" clip-rule="evenodd" d="M49.2873 10.8172C49.562 10.8172 49.7 10.6788 49.6998 10.4026V8.10354C49.6998 6.144 50.2438 4.63718 51.3311 3.58206C52.4185 2.52756 53.9498 2 55.9249 2H58.2129C58.5127 2 58.7187 2.0567 58.8311 2.16967C58.9438 2.28264 59 2.47691 59 2.75372V5.35318C59 5.88074 58.7373 6.14379 58.2129 6.14379H56.7127C55.9122 6.14379 55.3373 6.31346 54.9876 6.65259C54.6369 6.99172 54.4624 7.55034 54.4624 8.32949V10.4024C54.4624 10.6786 54.6127 10.817 54.9127 10.817H57.8378C58.1378 10.817 58.3442 10.8737 58.4566 10.9867C58.5693 11.0997 58.6255 11.2939 58.6255 11.5707V14.1704C58.6255 14.698 58.3629 14.9618 57.8378 14.9618H54.9127C54.6124 14.9618 54.4624 15.0996 54.4624 15.3764V25.2086C54.4624 25.7361 54.1998 26 53.6751 26H50.5251C49.9749 26 49.7 25.7361 49.7 25.2086V15.3764C49.7 15.0996 49.5622 14.9618 49.2873 14.9618H47.7873C47.2627 14.9618 47 14.698 47 14.1704V11.5709C47 11.2693 47.0564 11.068 47.1689 10.9679C47.2813 10.8672 47.4876 10.8172 47.7873 10.8172H49.2873Z" fill="#FF0000"/>
<g id="Group 26">
<mask id="mask7" mask-type="alpha" maskUnits="userSpaceOnUse" x="31" y="7" width="15" height="19">
<path id="Clip 25" fill-rule="evenodd" clip-rule="evenodd" d="M31.0767 7.16667H45.8619V26H31.0767V7.16667Z" fill="white"/>
</mask>
<g mask="url(#mask7)">
<path id="Fill 24" fill-rule="evenodd" clip-rule="evenodd" d="M35.6315 13.3335C35.6315 12.5457 35.7879 11.9925 36.1015 11.6721C36.4145 11.3526 36.9565 11.192 37.7281 11.192H39.2467C40.0175 11.192 40.5599 11.3524 40.8735 11.6721C41.1863 11.9925 41.3433 12.5457 41.3433 13.3335V15.1064C41.3433 15.3777 41.2105 15.5128 40.9453 15.5128H36.0293C35.7637 15.5128 35.6317 15.3777 35.6315 15.1064V13.3335ZM36.0293 18.6517H45.1029C45.6089 18.6517 45.8619 18.393 45.8619 17.8759V13.1858C45.8619 11.2417 45.3437 9.75149 44.3077 8.71793C43.2713 7.68375 41.8009 7.16667 39.8973 7.16667H37.0415C35.1369 7.16667 33.6669 7.68375 32.6311 8.71793C31.5945 9.75149 31.0767 11.2417 31.0767 13.1858V19.9808C31.0767 21.9256 31.5945 23.4151 32.6311 24.4495C33.6669 25.4829 35.1371 26.0002 37.0415 26.0002H45.0309C45.3199 26.0002 45.5187 25.9446 45.6269 25.8335C45.7355 25.7227 45.7897 25.5323 45.7897 25.261V22.8241C45.7897 22.2827 45.5363 22.012 45.0307 22.012H37.7281C36.9565 22.012 36.4085 21.8459 36.0835 21.5135C35.7581 21.1811 35.5951 20.6334 35.5951 19.8699V19.0572C35.5951 18.7867 35.7401 18.6517 36.0293 18.6517Z" fill="#FF0000"/>
</g>
</g>
<g id="Group 29">
<mask id="mask8" mask-type="alpha" maskUnits="userSpaceOnUse" x="79" y="7" width="16" height="19">
<path id="Clip 28" fill-rule="evenodd" clip-rule="evenodd" d="M79.083 7.16636H94.9052V26H79.083V7.16636Z" fill="white"/>
</mask>
<g mask="url(#mask8)">
<path id="Fill 27" fill-rule="evenodd" clip-rule="evenodd" d="M83.4876 26.0001H79.7426C79.0997 26.0001 78.927 25.7412 79.2234 25.2243L83.8952 16.3987L79.2236 7.9423C78.9765 7.42521 79.1248 7.16636 79.6686 7.16636H83.4507C84.0437 7.16636 84.4267 7.42521 84.6001 7.9423L86.9363 13.5551H87.0839L89.1235 7.9423C89.2958 7.42521 89.6798 7.16636 90.2727 7.16636H93.9806C94.6232 7.16636 94.7836 7.42521 94.4626 7.9423L90.0134 16.3987L94.7964 25.2243C94.9196 25.446 94.9383 25.6305 94.8519 25.7784C94.765 25.9261 94.598 26.0001 94.3512 26.0001H90.5324C90.0136 26.0001 89.6427 25.7412 89.4202 25.2243L87.0842 19.5744H86.9363L84.6003 25.2243C84.4267 25.7412 84.0561 26.0001 83.4876 26.0001Z" fill="#FF0000"/>
</g>
</g>
</g>
</g>
</svg>
