<svg width="81" height="66" viewBox="0 0 81 66" fill="none" xmlns="http://www.w3.org/2000/svg">
<path id="ic-twitter" fill-rule="evenodd" clip-rule="evenodd" d="M80.4439 7.63394C77.5309 8.88952 74.3669 9.79354 71.1023 10.1451C74.4673 8.13617 77.0287 4.9721 78.234 1.20536C75.1202 3.06362 71.6046 4.41965 67.9383 5.12277C64.9751 1.95871 60.7563 0 56.0856 0C47.0956 0 39.8635 7.28237 39.8635 16.2221C39.8635 17.4777 40.0141 18.7333 40.2653 19.9386C26.8054 19.2355 14.8021 12.8069 6.81655 2.96317C5.4103 5.37389 4.60673 8.13617 4.60673 11.1496C4.60673 16.7746 7.46946 21.7467 11.8389 24.6596C9.17705 24.5592 6.66588 23.8058 4.50628 22.6005C4.50628 22.6507 4.50628 22.7511 4.50628 22.8014C4.50628 30.6864 10.0811 37.2154 17.5141 38.7221C16.1581 39.0737 14.7016 39.2746 13.2451 39.2746C12.1904 39.2746 11.186 39.1742 10.1815 39.0235C12.2407 45.4521 18.2172 50.1228 25.3489 50.2735C19.7742 54.6429 12.7931 57.2043 5.20941 57.2043C3.85338 57.2043 2.5978 57.1541 1.29199 57.0034C8.47392 61.624 17.0119 64.2858 26.2027 64.2858C56.0354 64.2858 72.3579 39.5759 72.3579 18.1306C72.3579 17.4275 72.3579 16.7244 72.3077 16.0212C75.4718 13.711 78.234 10.8482 80.4439 7.63394Z" fill="#999999"/>
</svg>
