<svg width="25" height="25" viewBox="0 0 25 25" fill="none" xmlns="http://www.w3.org/2000/svg">
<path fill-rule="evenodd" clip-rule="evenodd" d="M12.5 25C19.4036 25 25 19.4036 25 12.5C25 5.59644 19.4036 0 12.5 0C5.59644 0 0 5.59644 0 12.5C0 19.4036 5.59644 25 12.5 25Z" fill="#003BFF"/>
<path fill-rule="evenodd" clip-rule="evenodd" d="M12.3049 15.9578L9.74215 14.4782C9.59145 14.3911 9.49859 14.2303 9.49859 14.0563V11.0459L6 9.06239V15.8891C6 16.1789 6.15465 16.4468 6.40575 16.5918L12.305 19.9976V15.9578H12.3049ZM15.7608 11.0437V14.0569C15.7608 14.2306 15.6681 14.3912 15.5176 14.4782L12.9508 15.9601V20L18.8538 16.5919C19.1049 16.4469 19.2595 16.179 19.2595 15.8891V9.06029L15.7608 11.0437ZM9.89899 10.491L12.3862 9.05502C12.5369 8.96813 12.7225 8.96813 12.8732 9.05493L15.3379 10.4779L18.8717 8.4783L13.0355 5.10881C12.7844 4.96373 12.4751 4.96373 12.224 5.10881L6.37995 8.48286L9.89899 10.491Z" fill="#4A90E2"/>
</svg>
