<svg width="90" height="66" viewBox="0 0 90 66" fill="none" xmlns="http://www.w3.org/2000/svg">
<path id="ic-youtube" fill-rule="evenodd" clip-rule="evenodd" d="M88.144 14.4434C88.4839 20.5606 88.6538 26.6211 88.6538 32.625C88.6538 38.6289 88.4839 44.6894 88.144 50.8066C88.144 54.6582 86.9263 57.915 84.4907 60.5771C82.0552 63.2393 79.0816 64.5703 75.5698 64.5703C66.8471 65.0234 56.7086 65.25 45.1538 65.25C33.5991 65.25 23.4605 65.0234 14.7378 64.5703C11.2261 64.5703 8.25245 63.2393 5.81689 60.5771C3.38134 57.915 2.16357 54.6582 2.16357 50.8066C1.82373 44.6894 1.65381 38.6289 1.65381 32.625C1.65381 28.6601 1.88037 22.5996 2.3335 14.4434C2.3335 10.5918 3.52294 7.33497 5.90186 4.67285C8.28077 2.01073 11.2261 0.679688 14.7378 0.679688C23.0074 0.22656 32.6362 0 43.6245 0H45.1538H46.6831C57.6714 0 67.3003 0.22656 75.5698 0.679688C79.0816 0.679688 82.0552 2.01073 84.4907 4.67285C86.9263 7.33497 88.144 10.5918 88.144 14.4434ZM36.8276 49.2773L61.4663 32.625L36.8276 15.8027V49.2773Z" fill="#999999"/>
</svg>
